<svg width="20" height="20" viewBox="0 0 20 20" fill="none" xmlns="http://www.w3.org/2000/svg">
<path d="M2.5 5.1387H18.0558M8.33374 9.02832V14.8617M12.2214 9.02812V14.8615M3.47168 5.13855L4.44392 16.8054C4.44392 17.3211 4.64878 17.8157 5.01344 18.1803C5.3781 18.545 5.87268 18.7498 6.38839 18.7498H14.1663C14.682 18.7498 15.1766 18.545 15.5412 18.1803C15.9059 17.8157 16.1107 17.3211 16.1107 16.8054L17.083 5.13855M7.3607 5.13894V2.22224C7.3607 1.96438 7.46313 1.71709 7.64546 1.53476C7.82779 1.35243 8.07508 1.25 8.33294 1.25H12.2219C12.4797 1.25 12.727 1.35243 12.9094 1.53476C13.0917 1.71709 13.1941 1.96438 13.1941 2.22224V5.13894" stroke="black" stroke-width="1.25" stroke-linecap="round" stroke-linejoin="round"/>
</svg>
