<svg width="72" height="72" viewBox="0 0 72 72" fill="none" xmlns="http://www.w3.org/2000/svg">
<path d="M62.5002 37C62.5002 39.5384 62.5002 43.5 62.5002 43.5C62.5002 54 57.7948 57.3333 48.7948 57.3333H16.7115C7.71147 57.3333 2.66675 54 2.66675 43.5V23.2405C2.66675 12.7405 7.50024 9.33317 16.5002 9.33317H26.6667M62.5002 37C61.0368 37.3292 61.0002 37.3333 59.5002 37.3333H49.8334L40.2001 43.7664C38.7667 44.6997 36.8334 43.6666 36.8334 41.9666V37.3333C33.6001 37.3333 30.8667 36.2665 28.9667 34.3665C27.0667 32.4665 26.0002 30.7333 26.0002 27.5L26.0001 12.5C26.0001 11 26.2334 10.5998 26.6667 9.33317M62.5002 37C67.209 35.4202 69.3334 32.4667 69.3334 27.5V12.5C69.3334 6 66.0002 2.6665 59.5002 2.6665H35.5002C30.5336 2.6665 28.1334 5.19984 26.6667 9.33317M20.6664 69.3332H44.6664M32.6667 57.3328V69.3328M57.6517 20.1665H57.6817M48.3191 20.1665H48.3491M38.9848 20.1665H39.0148" stroke="url(#paint0_linear_5516_4171)" stroke-width="5" stroke-linecap="round" stroke-linejoin="round"/>
<defs>
<linearGradient id="paint0_linear_5516_4171" x1="36.0002" y1="3" x2="36.0002" y2="70.3329" gradientUnits="userSpaceOnUse">
<stop stop-color="#05A83B"/>
<stop offset="1" stop-color="#3CE08F"/>
</linearGradient>
</defs>
</svg>
