<svg width="56" height="56" viewBox="0 0 56 56" fill="none" xmlns="http://www.w3.org/2000/svg">
<circle cx="28" cy="28" r="28" fill="#05A83B"/>
<path d="M41.0541 28.8141C41.0541 30.0325 41.0541 31.9341 41.0541 31.9341C41.0541 36.9741 38.7954 38.574 34.4754 38.574H19.0755C14.7554 38.574 12.334 36.9741 12.334 31.9341V22.2095C12.334 17.1695 14.6541 15.534 18.9741 15.534H23.854M41.0541 28.8141C40.3516 28.9721 40.3341 28.974 39.6141 28.974H34.974L30.35 32.0619C29.662 32.5099 28.734 32.014 28.734 31.198V28.974C27.182 28.974 25.87 28.462 24.958 27.55C24.046 26.638 23.5341 25.8061 23.5341 24.2541L23.534 17.0541C23.534 16.3341 23.646 16.142 23.854 15.534M41.0541 28.8141C43.3143 28.0558 44.334 26.6381 44.334 24.2541V17.0541C44.334 13.9341 42.7341 12.334 39.6141 12.334H28.0941C25.7101 12.334 24.558 13.55 23.854 15.534M20.9738 44.334H32.4938M26.734 38.5738V44.3338M38.7268 20.734H38.7412M34.2471 20.734H34.2615M29.7666 20.734H29.781" stroke="white" stroke-width="3" stroke-linecap="round" stroke-linejoin="round"/>
</svg>

