<svg width="56" height="56" viewBox="0 0 56 56" fill="none" xmlns="http://www.w3.org/2000/svg">
<circle cx="28" cy="28" r="28" fill="#05A83B"/>
<path d="M27.992 32.7985C30.6416 32.7985 32.7896 30.6506 32.7896 28.0009C32.7896 25.3513 30.6416 23.2033 27.992 23.2033C25.3424 23.2033 23.1944 25.3513 23.1944 28.0009C23.1944 30.6506 25.3424 32.7985 27.992 32.7985Z" stroke="white" stroke-width="3" stroke-linecap="round" stroke-linejoin="round"/>
<path d="M12 29.4082V26.5936C12 24.9305 13.3593 23.5552 15.0385 23.5552C17.933 23.5552 19.1164 21.5082 17.6612 18.9974C16.8296 17.5582 17.3253 15.6871 18.7806 14.8555L21.5472 13.2723C22.8106 12.5207 24.4418 12.9685 25.1934 14.2318L25.3693 14.5357C26.8086 17.0464 29.1754 17.0464 30.6307 14.5357L30.8066 14.2318C31.5582 12.9685 33.1894 12.5207 34.4528 13.2723L37.2194 14.8555C38.6747 15.6871 39.1704 17.5582 38.3388 18.9974C36.8836 21.5082 38.067 23.5552 40.9615 23.5552C42.6247 23.5552 44 24.9145 44 26.5936V29.4082C44 31.0714 42.6407 32.4467 40.9615 32.4467C38.067 32.4467 36.8836 34.4937 38.3388 37.0044C39.1704 38.4597 38.6747 40.3148 37.2194 41.1464L34.4528 42.7296C33.1894 43.4812 31.5582 43.0334 30.8066 41.7701L30.6307 41.4662C29.1914 38.9555 26.8246 38.9555 25.3693 41.4662L25.1934 41.7701C24.4418 43.0334 22.8106 43.4812 21.5472 42.7296L18.7806 41.1464C17.3253 40.3148 16.8296 38.4437 17.6612 37.0044C19.1164 34.4937 17.933 32.4467 15.0385 32.4467C13.3593 32.4467 12 31.0714 12 29.4082Z" stroke="white" stroke-width="3" stroke-linecap="round" stroke-linejoin="round"/>
</svg>

