<svg width="72" height="68" viewBox="0 0 72 68" fill="none" xmlns="http://www.w3.org/2000/svg">
<path d="M36.0001 44.0001C41.5229 44.0001 46.0001 39.523 46.0001 34.0001C46.0001 28.4773 41.5229 24.0001 36.0001 24.0001C30.4772 24.0001 26.0001 28.4773 26.0001 34.0001C26.0001 39.523 30.4772 44.0001 36.0001 44.0001Z" stroke="url(#paint0_linear_5516_4162)" stroke-width="5" stroke-linecap="round" stroke-linejoin="round"/>
<path d="M2.66675 36.9334V31.0668C2.66675 27.6001 5.50008 24.7334 9.00008 24.7334C15.0334 24.7334 17.5001 20.4668 14.4667 15.2334C12.7334 12.2334 13.7667 8.33345 16.8001 6.60011L22.5667 3.30011C25.2001 1.73345 28.6001 2.66678 30.1667 5.30011L30.5334 5.93345C33.5334 11.1668 38.4667 11.1668 41.5001 5.93345L41.8667 5.30011C43.4334 2.66678 46.8334 1.73345 49.4667 3.30011L55.2334 6.60011C58.2667 8.33345 59.3001 12.2334 57.5667 15.2334C54.5334 20.4668 57.0001 24.7334 63.0334 24.7334C66.5001 24.7334 69.3667 27.5668 69.3667 31.0668V36.9334C69.3667 40.4001 66.5334 43.2668 63.0334 43.2668C57.0001 43.2668 54.5334 47.5334 57.5667 52.7668C59.3001 55.8001 58.2667 59.6668 55.2334 61.4001L49.4667 64.7001C46.8334 66.2668 43.4334 65.3334 41.8667 62.7001L41.5001 62.0668C38.5001 56.8334 33.5667 56.8334 30.5334 62.0668L30.1667 62.7001C28.6001 65.3334 25.2001 66.2668 22.5667 64.7001L16.8001 61.4001C13.7667 59.6668 12.7334 55.7668 14.4667 52.7668C17.5001 47.5334 15.0334 43.2668 9.00008 43.2668C5.50008 43.2668 2.66675 40.4001 2.66675 36.9334Z" stroke="url(#paint1_linear_5516_4162)" stroke-width="5" stroke-linecap="round" stroke-linejoin="round"/>
<defs>
<linearGradient id="paint0_linear_5516_4162" x1="36.0169" y1="2.85189" x2="36.0168" y2="66.4067" gradientUnits="userSpaceOnUse">
<stop stop-color="#05A83B"/>
<stop offset="1" stop-color="#3CE08F"/>
</linearGradient>
<linearGradient id="paint1_linear_5516_4162" x1="36.0169" y1="2.85189" x2="36.0168" y2="66.4067" gradientUnits="userSpaceOnUse">
<stop stop-color="#05A83B"/>
<stop offset="1" stop-color="#3CE08F"/>
</linearGradient>
</defs>
</svg>
