<svg width="20" height="20" viewBox="0 0 20 20" fill="none" xmlns="http://www.w3.org/2000/svg">
<path d="M6.53428 5.67814H3.61391C3.09755 5.67814 2.60235 5.88326 2.23723 6.24838C1.87211 6.6135 1.66699 7.1087 1.66699 7.62506V16.3862C1.66699 16.9025 1.87211 17.3977 2.23723 17.7629C2.60235 18.128 3.09755 18.3331 3.61391 18.3331H12.375C12.8914 18.3331 13.3866 18.128 13.7517 17.7629C14.1168 17.3977 14.3219 16.9025 14.3219 16.3862V13.4658M13.3487 3.73132L16.2691 6.6517M6.53434 13.4661H9.45472L17.7291 5.19171C18.1164 4.80444 18.3339 4.2792 18.3339 3.73152C18.3339 3.18384 18.1164 2.6586 17.7291 2.27133C17.3418 1.88407 16.8166 1.6665 16.2689 1.6665C15.7212 1.6665 15.196 1.88407 14.8087 2.27133L6.53434 10.5457V13.4661Z" stroke="black" stroke-width="1.25" stroke-linecap="round" stroke-linejoin="round"/>
</svg>
