<svg width="20" height="20" viewBox="0 0 20 20" fill="none" xmlns="http://www.w3.org/2000/svg">
<path d="M12.927 9.76939C12.927 11.3882 11.6189 12.6963 10.0001 12.6963C8.38126 12.6963 7.07314 11.3882 7.07314 9.76939C7.07314 8.15058 8.38126 6.84246 10.0001 6.84246C11.6189 6.84246 12.927 8.15058 12.927 9.76939Z" stroke="black" stroke-width="1.25" stroke-linecap="round" stroke-linejoin="round"/>
<path d="M10 16.5309C12.8861 16.5309 15.5759 14.8304 17.4481 11.8871C18.184 10.7343 18.184 8.79663 17.4481 7.64384C15.5759 4.70056 12.8861 3 10 3C7.11395 3 4.42412 4.70056 2.55187 7.64384C1.81604 8.79663 1.81604 10.7343 2.55187 11.8871C4.42412 14.8304 7.11395 16.5309 10 16.5309Z" stroke="black" stroke-width="1.25" stroke-linecap="round" stroke-linejoin="round"/>
</svg>
